<svg width="21" height="25" viewBox="0 0 21 25" fill="none" xmlns="http://www.w3.org/2000/svg">
<path d="M10.271 12.0426C11.9254 12.0426 13.3579 11.4492 14.5286 10.2785C15.6989 9.10795 16.2925 7.67573 16.2925 6.02111C16.2925 4.36706 15.6991 2.93464 14.5284 1.76372C13.3577 0.593375 11.9253 0 10.271 0C8.61639 0 7.18416 0.593375 6.01362 1.76391C4.84308 2.93445 4.24951 4.36687 4.24951 6.02111C4.24951 7.67573 4.84308 9.10814 6.01362 10.2787C7.18454 11.449 8.61696 12.0426 10.271 12.0426ZM7.04969 2.79979C7.94786 1.90162 9.00148 1.46503 10.271 1.46503C11.5404 1.46503 12.5942 1.90162 13.4925 2.79979C14.3907 3.69815 14.8275 4.75196 14.8275 6.02111C14.8275 7.29064 14.3907 8.34425 13.4925 9.24261C12.5942 10.141 11.5404 10.5776 10.271 10.5776C9.00186 10.5776 7.94824 10.1408 7.04969 9.24261C6.15133 8.34444 5.71455 7.29064 5.71455 6.02111C5.71455 4.75196 6.15133 3.69815 7.04969 2.79979Z" fill="#F41671"/>
<path d="M20.8071 19.2239C20.7733 18.7368 20.705 18.2054 20.6045 17.6443C20.503 17.0789 20.3724 16.5445 20.216 16.056C20.0542 15.5512 19.8347 15.0526 19.5629 14.5748C19.2812 14.0789 18.9501 13.6471 18.5785 13.2917C18.19 12.92 17.7143 12.6211 17.1642 12.4031C16.6161 12.1862 16.0086 12.0764 15.3587 12.0764C15.1035 12.0764 14.8567 12.1811 14.3801 12.4914C14.0867 12.6827 13.7436 12.904 13.3606 13.1487C13.0331 13.3573 12.5895 13.5528 12.0415 13.7298C11.5068 13.9028 10.964 13.9906 10.428 13.9906C9.89246 13.9906 9.34963 13.9028 8.81462 13.7298C8.26721 13.553 7.82337 13.3575 7.49645 13.1489C7.11708 12.9064 6.77376 12.6852 6.47602 12.4912C5.99976 12.1809 5.75294 12.0762 5.49774 12.0762C4.84772 12.0762 4.24042 12.1862 3.69244 12.4033C3.14274 12.6209 2.66685 12.9198 2.27795 13.2919C1.90639 13.6474 1.57528 14.0791 1.29375 14.5748C1.02234 15.0526 0.802612 15.551 0.640869 16.0562C0.484657 16.5447 0.354004 17.0789 0.252533 17.6443C0.151825 18.2047 0.0837326 18.7362 0.0499726 19.2245C0.0167847 19.7019 0 20.1988 0 20.7008C0 22.0058 0.414848 23.0623 1.23291 23.8414C2.04086 24.6103 3.10974 25.0002 4.40998 25.0002H16.4476C17.7475 25.0002 18.8164 24.6103 19.6245 23.8414C20.4428 23.0629 20.8576 22.006 20.8576 20.7006C20.8574 20.1969 20.8405 19.7 20.8071 19.2239ZM18.6144 22.78C18.0805 23.2881 17.3717 23.5351 16.4474 23.5351H4.40998C3.48549 23.5351 2.77672 23.2881 2.24304 22.7802C1.71947 22.2818 1.46503 21.6015 1.46503 20.7008C1.46503 20.2324 1.48048 19.7698 1.51138 19.3258C1.54152 18.8902 1.60313 18.4116 1.69449 17.9031C1.78471 17.4009 1.89953 16.9296 2.03609 16.5029C2.16713 16.0938 2.34585 15.6887 2.56748 15.2984C2.77901 14.9265 3.02238 14.6074 3.29094 14.3503C3.54214 14.1098 3.85876 13.9129 4.23183 13.7653C4.57687 13.6288 4.96464 13.554 5.38559 13.5427C5.4369 13.57 5.52826 13.6221 5.67627 13.7186C5.97744 13.9149 6.32458 14.1388 6.70834 14.3839C7.14092 14.6597 7.69825 14.9088 8.36411 15.1237C9.04484 15.3438 9.73911 15.4556 10.4282 15.4556C11.1174 15.4556 11.8118 15.3438 12.4922 15.1239C13.1586 14.9086 13.7157 14.6597 14.1489 14.3835C14.5416 14.1325 14.879 13.915 15.1802 13.7186C15.3282 13.6223 15.4196 13.57 15.4709 13.5427C15.892 13.554 16.2798 13.6288 16.625 13.7653C16.9979 13.9129 17.3145 14.11 17.5657 14.3503C17.8343 14.6072 18.0777 14.9263 18.2892 15.2986C18.511 15.6887 18.6899 16.094 18.8208 16.5027C18.9575 16.93 19.0725 17.4011 19.1626 17.9029C19.2537 18.4124 19.3155 18.8911 19.3457 19.326V19.3264C19.3768 19.7687 19.3924 20.231 19.3926 20.7008C19.3924 21.6016 19.138 22.2818 18.6144 22.78Z" fill="#F41671"/>
</svg>
