<svg width="25" height="29" viewBox="0 0 25 29" fill="none" xmlns="http://www.w3.org/2000/svg">
<path d="M24.1429 14.5C24.1429 13.9885 23.9397 13.498 23.578 13.1363C23.2163 12.7746 22.7258 12.5714 22.2143 12.5714H2.92857C2.41708 12.5714 1.92654 12.7746 1.56487 13.1363C1.20319 13.498 1 13.9885 1 14.5V26.0714C1 26.5829 1.20319 27.0735 1.56487 27.4351C1.92654 27.7968 2.41708 28 2.92857 28H22.2143C22.7258 28 23.2163 27.7968 23.578 27.4351C23.9397 27.0735 24.1429 26.5829 24.1429 26.0714V14.5ZM6.78571 12.5714V6.78571C6.78571 5.25125 7.39528 3.77963 8.48031 2.6946C9.56534 1.60956 11.037 1 12.5714 1C14.1059 1 15.5775 1.60956 16.6625 2.6946C17.7476 3.77963 18.3571 5.25125 18.3571 6.78571V12.5714H6.78571Z" stroke="#F41671" stroke-width="1.3"/>
<circle cx="13" cy="20" r="3.35" stroke="#F41671" stroke-width="1.3"/>
</svg>
